<svg width="15" height="15" viewBox="0 0 15 15" fill="none" xmlns="http://www.w3.org/2000/svg">
<g id="tabler:brand-threads">
<path id="Vector" d="M11.4769 4.7002C10.6993 2.9502 9.33781 2.0752 7.39356 2.0752C4.4769 2.0752 2.7269 3.53353 2.7269 7.3252C2.7269 11.1169 4.76856 12.5752 7.39356 12.5752C10.0186 12.5752 11.4769 10.8252 11.4769 9.65853C11.4769 8.49186 10.8936 6.74186 7.39356 6.74186C5.93523 6.74186 5.64356 7.47103 5.64356 8.2002C5.64356 9.0752 6.2269 9.65853 7.1019 9.65853C8.56023 9.65853 9.14356 8.78353 9.14356 6.74186C9.14356 4.7002 7.9769 4.40853 7.39356 4.40853C6.81023 4.40853 6.32431 4.60278 5.93523 4.99186" stroke="black" stroke-width="1.16667" stroke-linecap="round" stroke-linejoin="round"/>
</g>
</svg>
